<svg version="1.0" xmlns="http://www.w3.org/2000/svg"
 width="64.000000pt" height="64.000000pt" viewBox="0 0 64.000000 64.000000"
 preserveAspectRatio="xMidYMid meet">

<g transform="translate(0.000000,64.000000) scale(0.100000,-0.100000)"
fill="#ffffff" stroke="none">
<path d="M4 625 c-8 -20 4 -82 23 -120 9 -16 56 -68 104 -115 l89 -86 0 -147
c0 -124 2 -149 15 -154 10 -3 50 17 100 51 l85 56 0 97 0 96 94 91 c98 96 131
152 124 212 l-3 29 -313 3 c-272 2 -313 0 -318 -13z m580 -57 c-15 -50 -37
-78 -109 -144 -42 -37 -83 -80 -91 -95 -9 -18 -14 -59 -14 -111 l0 -83 -44
-27 c-24 -16 -46 -28 -49 -28 -3 0 -7 57 -9 126 l-3 127 -85 81 c-101 95 -108
104 -120 145 l-9 31 270 0 270 0 -7 -22z"/>
</g>
</svg>
